<svg xmlns="http://www.w3.org/2000/svg" width="82" height="82" viewBox="0 0 82 82">
  <g id="Group_1" data-name="Group 1" transform="translate(-711.684 -577.475)">
    <path id="Path_1" data-name="Path 1" d="M11.383-33.555V-86.824H26.539q6.909,0,10.958,3.38a10.925,10.925,0,0,1,4.049,8.8,12.954,12.954,0,0,1-2.452,7.875,13.221,13.221,0,0,1-6.761,4.755v.149a13.552,13.552,0,0,1,8.618,4.068,12.511,12.511,0,0,1,3.232,8.934,13.927,13.927,0,0,1-4.9,11.07,18.25,18.25,0,0,1-12.37,4.235Z" transform="translate(725 679)" fill="#c4c4c4"/>
    <path id="Path_2" data-name="Path 2" d="M761.684,576.475h-40v40" transform="translate(-9 2)" fill="none" stroke="#c4c4c4" stroke-width="2"/>
    <path id="Path_3" data-name="Path 3" d="M721.684,616.475h40v-40" transform="translate(31 42)" fill="none" stroke="#c4c4c4" stroke-width="2"/>
  </g>
</svg>
